# xmcd CD database file
#
# Track frame offsets:
#	150
#	41682
#	63182
#	92592
#	111225
#	170262
#	204052
#
# Disc length: 3507 seconds
#
# Revision: 4
# Processed by: cddbd v1.5.2PL0 Copyright (c) Steve Scherf et al.
# Submitted via: CDex 1.51
#
DISCID=4f0db107
DTITLE=Various Artist - Improvised Music Works Part II
DYEAR=1998
DGENRE=Jazz
TTITLE0=Paul Motian Trio - Duke Ellington's Sound Of Love
TTITLE1=Noël Akchoté - New York
TTITLE2=Dave Douglas - Odyssey
TTITLE3=Uri Cane Trio - Honeysuckle Rose
TTITLE4=Gary Thomas - Only Hearsay
TTITLE5=Ernst Reijseger - Colla Parte
TTITLE6=Uri Caine - The Farewell from »The Song of the Earth«
EXTD=YEAR: 1998
EXTT0=
EXTT1=
EXTT2=
EXTT3=
EXTT4=
EXTT5=
EXTT6=
PLAYORDER=
